<?xml version="1.0" encoding="UTF-8" standalone="no"?>
<svg
   xmlns:dc="http://purl.org/dc/elements/1.1/"
   xmlns:cc="http://creativecommons.org/ns#"
   xmlns:rdf="http://www.w3.org/1999/02/22-rdf-syntax-ns#"
   xmlns:svg="http://www.w3.org/2000/svg"
   xmlns="http://www.w3.org/2000/svg"
   xmlns:sodipodi="http://sodipodi.sourceforge.net/DTD/sodipodi-0.dtd"
   xmlns:inkscape="http://www.inkscape.org/namespaces/inkscape"
   width="313.18875"
   height="241.83444"
   viewBox="0 0 82.864525 63.985363"
   version="1.1"
   id="svg8"
   inkscape:version="1.0.1 (3bc2e813f5, 2020-09-07)"
   sodipodi:docname="blooper stamp.svg">
  <defs
     id="defs2" />
  <sodipodi:namedview
     id="base"
     pagecolor="#ffffff"
     bordercolor="#666666"
     borderopacity="1.0"
     inkscape:pageopacity="0.0"
     inkscape:pageshadow="2"
     inkscape:zoom="1.4"
     inkscape:cx="193.39134"
     inkscape:cy="281.3438"
     inkscape:document-units="mm"
     inkscape:current-layer="layer1"
     inkscape:document-rotation="0"
     showgrid="false"
     inkscape:window-width="2400"
     inkscape:window-height="1271"
     inkscape:window-x="2391"
     inkscape:window-y="-9"
     inkscape:window-maximized="1"
     fit-margin-top="0"
     fit-margin-left="0"
     fit-margin-right="0"
     fit-margin-bottom="0"
     units="px" />
  <metadata
     id="metadata5">
    <rdf:RDF>
      <cc:Work
         rdf:about="">
        <dc:format>image/svg+xml</dc:format>
        <dc:type
           rdf:resource="http://purl.org/dc/dcmitype/StillImage" />
        <dc:title></dc:title>
      </cc:Work>
    </rdf:RDF>
  </metadata>
  <g
     inkscape:label="Layer 1"
     inkscape:groupmode="layer"
     id="layer1"
     transform="translate(-56.741947,-7.1497527)">
    <g
       id="g926"
       style="fill:#fdfcfb;fill-opacity:1;stroke:#bfbfbf;stroke-opacity:1" />
    <path
       id="path982"
       style="fill:#b92525;fill-opacity:1;stroke-width:0.248384"
       d="m 94.229088,67.981292 c -1.482299,-0.39652 -3.156205,-0.2633 -4.522748,-0.953648 -1.018348,-0.872778 -1.066062,-0.773342 -2.125692,-0.406038 -0.778785,-1.399716 0.569941,-0.896813 1.464954,-0.658104 1.324343,0.380541 2.782468,0.403686 3.96177,1.171704 0.869404,-0.447335 0.844407,1.031564 1.570703,0.132682 0.780925,0.169611 0.454353,1.245694 -0.348987,0.713404 z m 1.100566,-0.14553 c -0.462058,-0.903462 1.763215,-0.746985 1.599246,-0.09592 -0.293436,1.124147 -1.7616,-1.104206 -1.180189,0.372078 -0.253878,0.0667 -0.314978,-0.07639 -0.419057,-0.276154 z m 1.383277,-0.09642 c -0.28435,-0.538477 -0.309839,0.513984 0,0 z m 0.58352,-0.04443 c 0.129338,-0.966245 1.82061,-0.363539 2.6221,-0.65461 1.824599,-0.286678 0.371799,0.476354 -0.536858,0.742651 -0.473635,-0.107803 -2.457605,0.887483 -2.085242,-0.08804 z m 3.970189,-0.742123 c 1.1506,-0.342155 -0.23337,0.745113 0,0 z m 1.96121,-0.129366 c 0.88685,-1.396299 0.53846,0.892853 -0.0447,0.133949 z m 1.15107,-0.222783 c -0.24563,-0.475272 1.78616,-0.673217 2.457,-1.03689 2.01809,-0.550944 3.78714,-1.712938 5.6767,-2.579251 1.42253,0.660686 -0.9368,1.481366 -1.06149,1.455958 0.63395,-1.444558 -0.83062,0.576695 -1.27789,0.917834 -1.16303,0.178426 -2.13231,0.834736 -3.33739,0.711489 -0.49117,0.815559 -0.47934,0.340404 -1.58787,0.738735 -0.30871,-0.04088 -0.62551,0.03113 -0.86906,-0.207875 z m 4.00808,-0.848374 c -0.28437,-0.538473 -0.30984,0.513993 0,0 z m -11.97171,0.737292 c -1.937073,-0.292644 -4.018295,-0.245146 -5.960809,-0.789133 -1.009114,-0.200638 -0.555503,-0.989708 -1.565655,-0.817512 -0.632454,-0.08669 -1.734239,-0.114468 -2.557345,-0.588921 -1.001777,-0.153656 -1.795344,-0.704504 -0.693425,-1.448267 0.35362,-1.348471 -0.964539,-0.394822 -1.282244,-0.194471 -0.553016,-0.182025 0.843474,1.398684 -0.762898,0.355972 -1.526725,-0.975065 -3.143789,-1.82582 -4.460407,-3.090004 0.230348,-1.426327 -0.796984,-0.809856 -0.354122,-0.244021 -0.803548,-0.775123 -1.607096,-1.550244 -2.410645,-2.325366 0.618991,-0.471378 -1.082877,-0.460873 -1.359163,-1.643563 -0.32397,-0.622014 -1.909328,-1.673724 -0.537312,-1.95661 0.889424,-0.119878 1.958814,-0.772107 2.745625,-0.58846 0.330845,0.703664 1.637405,1.359464 0.785735,2.121134 0.74674,-0.716609 1.876014,0.515875 1.584807,1.242672 0.965454,0.02224 0.63872,0.561548 1.709968,0.967806 1.644716,1.457929 3.557112,2.627109 5.530816,3.560078 1.283648,-0.176185 1.459168,1.481892 0.263773,0.881953 -0.708768,-0.303116 -0.966436,-0.938604 -0.990994,-0.438776 0.799777,0.690016 1.524965,1.567614 2.368763,2.146923 -0.01749,-1.208085 -1.2992,-0.887466 -0.04312,-1.755514 1.080215,-0.07166 -0.311046,2.319647 0.98554,1.255464 0.569906,-1.222036 1.588556,-0.06352 2.638331,-0.341745 0.804345,0.304811 2.421853,-0.06032 2.675365,0.731061 0.27188,1.021327 0.647262,-0.726506 1.641522,-0.137651 -0.208255,1.250558 0.53909,0.03149 1.397345,-0.01047 0.998672,-0.08442 2.078697,-0.362655 2.567299,0.768135 0.73209,-0.361529 0.088,-1.419727 1.55975,-1.198066 3.30122,-0.436354 6.35424,-1.85125 9.22745,-3.476437 0.21274,1.19174 1.63278,-0.123085 0.51592,-0.367728 0.97016,-0.418823 1.69481,-1.034005 2.42089,-1.868377 1.35373,-1.231598 2.50094,-2.780205 3.9849,-3.811911 0.73987,-0.238799 0.3333,-1.48183 1.14339,-2.218872 -0.0491,-1.354149 1.70857,-1.041542 1.46305,-1.245932 -1.07173,-0.591769 0.20209,-1.580523 0.37853,-2.383544 0.71463,-2.037563 1.47102,-4.068272 1.57699,-6.247659 1.03024,-0.352124 2.01278,-0.962889 3.13978,-0.790498 -0.41742,3.816955 -1.43216,7.595989 -3.35467,10.938369 -0.59931,1.38053 -1.48037,2.588162 -2.37957,3.784662 -0.97241,-1.482208 0.33846,0.587189 -0.73725,0.972157 -0.28979,1.027274 -1.71633,1.122981 -1.80516,1.511839 0.24515,0.857969 -1.22322,1.303803 -1.68024,1.992885 -0.86463,0.869591 -1.93882,1.473278 -2.92786,2.185008 0.14512,-0.619085 -1.10377,1.018187 -1.22946,0.292134 0.51553,0.869298 -1.49565,1.028149 -2.07218,1.590391 -2.22338,0.942093 -4.47315,1.841621 -6.88441,2.158762 -2.01551,0.543331 -4.111629,0.449505 -6.176569,0.602117 l -0.08001,-0.08001 z m -1.441049,-0.985679 c -0.284361,-0.538469 -0.309828,0.513992 0,0 z m 7.865509,-0.0414 c -1.15057,-0.342188 0.23336,0.745138 0,0 z m 0.57956,0.0414 c -0.28436,-0.538468 -0.30982,0.513991 0,0 z M 91.196173,64.783778 c -1.565025,-1.229345 0.932451,1.535263 0,0 z m 2.536146,0.223333 c -0.284358,-0.538472 -0.309831,0.513991 0,0 z m 1.490306,0 c -0.284358,-0.538472 -0.309831,0.513991 0,0 z m 7.575725,-0.124193 c 0.67454,-0.179795 0.45744,-1.194951 -0.37258,-0.01785 -0.28965,0.407044 0.93299,0.391351 0.37258,0.01785 z m -8.320878,-0.124192 c -0.28436,-0.538469 -0.30983,0.51399 0,0 z m 11.425678,-0.124192 c -0.58855,-1.209802 -0.77157,1.15027 0,0 z M 92.987166,64.510342 c -0.28436,-0.538469 -0.30983,0.51399 0,0 z m -3.97415,-0.233725 c -0.843643,-1.168642 -0.48772,0.353164 0,0 z m 9.190221,-0.01465 c -0.284358,-0.538472 -0.309831,0.513991 0,0 z m 8.445073,-0.248385 c -0.49241,-1.403686 -0.63965,1.37107 0,0.03315 z M 92.738782,63.648796 c 0.133489,-1.205649 -1.555409,0.424372 -0.206986,0.488974 0.370606,0.13768 0.146561,-0.314676 0.206986,-0.488974 z m -5.216072,-0.0078 c -0.272445,-0.80593 -0.676232,0.911809 0,0.07867 z m 6.887492,-0.150067 c -1.261328,-0.264457 -0.159736,0.514798 0,0 z m 13.498658,-0.166623 c -0.5633,-0.769911 -0.63962,1.10079 0.001,0.01128 z m 2.06322,-0.317172 c 0.2793,-1.41791 -0.86772,1.374732 0,0 z m -0.3461,-0.60806 c 0.70709,-0.352639 -1.11179,-2.171743 -0.28743,-0.565544 -0.58576,-0.734518 -1.26592,1.236518 -0.15183,0.655509 0.14518,-0.0641 0.27615,-0.119977 0.43926,-0.08996 z M 84.900891,60.590331 c -0.533222,-0.682512 -2.229212,-0.422789 -0.62738,0.304764 0.194904,0.452461 0.983237,0.09857 0.62738,-0.304764 z M 113.76866,59.74964 c -0.3342,-0.439104 -0.21722,1.023588 0.16559,0.16559 l -0.12,-0.120004 z M 82.306638,59.418462 c -0.588551,-1.209804 -0.771569,1.150272 0,0 z M 114.34822,59.29427 c -0.28436,-0.538468 -0.30982,0.513989 0,0 z m 0.91075,-0.0414 c -1.15059,-0.342161 0.23335,0.745111 0,0 z m -1.90429,-0.455369 c -0.28436,-0.538468 -0.30982,0.513991 0,0 z m 2.4188,-1.289234 c -1.36566,-1.061779 -0.0682,1.016418 0.29988,0.299876 -0.1,-0.09995 -0.19993,-0.199948 -0.29988,-0.299876 z m 0.31343,-1.194609 c -0.28436,-0.538468 -0.30982,0.513989 0,0 z M 77.338951,54.823352 c -0.284358,-0.538472 -0.309831,0.513991 0,0 z m 42.473729,-0.745154 c -0.28437,-0.538469 -0.30984,0.513992 0,0 z m 0.74135,-1.676594 c 0.045,-1.323851 -1.98679,0.347998 -0.49277,0.31048 -0.18085,1.454592 0.35712,0.711002 0.49277,-0.31048 z m 0.90884,-1.060075 c -0.67312,-1.537696 1.87528,-0.589365 1.02032,-1.361673 -1.22657,0.09919 0.13884,-1.133039 -1.22105,0.166188 -0.85459,0.244476 -1.68818,1.068658 -0.6258,1.842194 0.43628,-0.127404 0.98527,0.02255 0.82653,-0.646709 z m -1.00223,-0.07607 c 0.0705,-1.792381 1.02197,0.576622 0,0 z m 1.96007,-5.259752 c 0.31216,-1.179683 -1.17059,0.983228 0,0 z m 0.62096,-0.124193 c -0.28436,-0.538468 -0.30982,0.513991 0,0 z m 0.24341,-1.496309 c -1.59614,-1.123589 0.80377,1.507113 0,0 z m 0.87432,-0.366573 c 0.41241,-1.034099 -1.00699,1.013425 0,0 z m -0.95214,-1.407513 c -1.1506,-0.342146 0.2334,0.74511 0,0 z m 1.49031,-0.993537 c -1.15059,-0.342177 0.2334,0.74513 0,0 z M 87.025941,66.249033 c 0.284359,-0.538473 0.309833,0.513991 0,0 z m -1.217344,-0.599645 c -0.733355,-0.691093 -1.788192,-0.222615 -2.624915,-1.09903 -0.803883,-0.440431 -1.848162,-0.730904 -1.552159,-1.85743 0.943276,0.439052 0.811035,1.081019 1.72345,0.827448 1.250199,0.479147 2.330766,1.63945 3.707392,1.610927 0.02598,0.903434 -0.62052,1.36025 -1.253768,0.518085 z m 0.96896,-0.145509 c -0.284361,-0.538469 -0.309828,0.513992 0,0 z m 13.288563,-2.111267 c -0.312203,-1.179694 1.17067,0.983262 0,0 z m 13.53695,-0.124192 c 0.28436,-0.538468 0.30982,0.513989 0,0 z M 80.3572,62.723532 c -0.378893,-0.681136 -1.69306,-0.532231 -1.723369,-1.713805 -0.717507,0.421385 -1.477749,-0.799057 -2.174542,-1.367202 -1.640394,-1.368619 -2.759888,-3.204644 -4.088025,-4.853452 -0.056,-1.357273 1.503728,-0.175938 1.681689,0.624288 1.318928,2.045518 3.290134,3.571854 4.97317,5.303127 0.649301,0.670107 2.148167,0.986938 2.232562,1.891949 0.07571,0.575543 -0.857913,0.758642 -0.901485,0.115095 z m 33.11576,-0.229835 c 1.32138,-1.02867 -0.0104,0.957085 -0.28214,0.282134 0.094,-0.09403 0.18811,-0.188128 0.28214,-0.282134 z m 0.87526,-0.09462 c 0.18252,-1.209053 0.37633,1.215665 0,0 z m 0.62096,-0.248385 c 0.93509,-0.966569 -0.3174,0.961353 0,0 z M 89.261401,62.026498 c 0.28436,-0.538469 0.30983,0.51399 0,0 z m 26.729689,-0.729517 c 0.0555,-0.923006 -1.39208,0.511384 0.0925,-0.823227 0.70225,-0.413506 1.62021,-2.239566 2.03506,-0.771192 -0.62388,0.812424 -1.42398,1.426977 -2.27654,1.982629 0.0497,-0.129403 0.0993,-0.258807 0.14897,-0.38821 z m 2.18223,-2.415513 c -0.12326,-0.747204 1.27927,-1.375878 1.5748,-2.274218 1.45477,-1.800833 2.79858,-3.67195 3.74018,-5.797813 1.37026,-2.478386 1.99563,-5.28826 2.61304,-8.032727 1.28862,0.06367 0.59448,1.467149 0.43814,2.265387 -0.31047,1.519613 -0.90047,2.961078 -1.35295,4.440991 -1.70603,-0.371218 0.1677,0.932572 -0.81595,1.678589 -1.39531,2.968646 -3.31911,5.668825 -5.61471,8.008401 -0.28762,0.01588 -0.48687,0.0546 -0.58255,-0.28861 z m 7.84897,-13.248338 c -0.28437,-0.538473 -0.30984,0.513993 0,0 z m 0.76991,-3.034914 c -0.88403,-0.08203 -0.70028,-0.213407 -0.52157,-1.551543 -0.38708,-1.074872 1.63077,-1.298926 0.96337,-0.0021 0.10647,0.308732 -0.44607,2.32269 -0.4418,1.553605 z M 67.465539,36.162333 c -0.05676,-2.411695 0.700428,-4.705505 1.218345,-7.033968 1.10817,0.530861 -0.115071,-1.788676 1.339076,-1.201961 0.0027,1.170198 -0.908536,2.444245 -1.015164,3.720762 -0.384474,2.001465 -0.758166,4.003864 -0.61069,6.051458 -0.996829,1.149206 -1.252579,0.800247 -0.983539,-0.609638 0.01732,-0.308884 0.03465,-0.617769 0.05197,-0.926653 z m 1.499237,-0.363314 c 0.02287,-1.608271 0.352976,-3.172433 0.722826,-4.730888 1.555387,0.412674 -0.232621,-0.205705 0.290719,-0.978854 0.676937,-2.680872 2.258335,-5.040403 3.377596,-7.555893 1.512469,-2.140823 3.203265,-4.12478 5.149704,-5.883859 0.300823,-1.535156 2.172481,0.435609 1.594031,-0.734011 0.08282,-0.470849 1.278955,-2.005049 1.787799,-1.459837 -0.987521,0.550061 -0.918932,1.206761 0.419187,1.178249 -0.213655,-0.729531 1.550831,-1.596775 0.09907,-1.570339 -1.005469,0.446342 1.206368,-1.602108 1.236166,-0.445248 0.15026,-0.314058 0.991775,-1.392772 1.942514,-1.538056 0.610535,-0.320964 1.469035,1.745298 1.441554,0.04357 -0.753159,-0.185211 -0.826675,-0.18899 -0.248384,-0.525947 0.540572,-0.460995 2.276172,-0.825442 1.063367,0.235572 0.12352,0.653228 0.254346,0.969667 1.447061,0.781535 0.86469,0.20812 1.644774,0.136626 2.21581,0.346177 0.273333,-1.55667 2.012382,0.222814 0.751413,-0.509426 -0.124595,1.012764 -1.333117,1.04209 -2.147154,1.310666 -0.922159,0.168157 -2.128502,-0.165418 -2.515918,0.94684 -0.734989,-0.05012 0.796108,-1.53058 1.169193,-1.123434 0.775778,-1.020842 -1.487299,-0.603732 -1.725199,0.03202 -1.199605,1.520273 -0.756452,-0.518549 -0.83375,-0.915018 -0.46256,0.501262 -2.502662,0.276275 -1.982872,0.697836 1.373603,0.332245 0.462225,1.313091 1.907442,1.32385 0.505149,0.997507 -1.471012,0.616353 -1.336468,1.430748 -0.649228,0.552839 -2.168368,0.560314 -2.235459,1.478106 -0.719912,0.190769 -2.335817,-0.369575 -1.509677,1.006688 -0.341818,0.893852 -0.428435,-1.125711 -0.738182,0.664326 -0.775957,0.64099 -1.338418,1.777043 -2.246669,2.111267 0.02666,0.323658 -0.772715,1.454007 -0.841529,0.517419 -0.384166,0.831889 -2.306384,0.268563 -0.68211,0.83247 1.48242,-0.483636 0.177945,0.617294 -0.200312,1.374965 -1.332799,1.646425 -1.949387,3.675019 -2.767599,5.596027 -1.402213,0.687572 0.182395,0.864367 -0.60952,2.027525 -0.695934,1.642707 -0.389251,3.567444 -0.901471,5.199169 -0.935217,0.339018 -2.1275,0.141431 -3.017421,0.799066 -0.50581,0.366078 0.03068,-1.668483 -0.07576,-1.96328 z m 2.909719,-2.088339 c -0.28436,-0.538469 -0.30983,0.51399 0,0 z m -1.862883,-0.372576 c 0.312183,-1.17969 -1.170631,0.983242 0,0 z m 2.525241,-2.152666 c -0.334193,-0.439104 -0.217216,1.023589 0.16559,0.165591 L 72.58244,31.231025 Z m -1.655895,-0.45537 c -0.284361,-0.538469 -0.309831,0.51399 0,0 z m 4.719303,-7.502996 c 0.230085,-0.922428 -2.022539,1.155391 -0.933039,0.769428 0.302728,-0.251897 1.134598,-0.211079 0.933039,-0.769428 z m 0.745153,0.05147 c -0.28436,-0.538469 -0.309831,0.51399 0,0 z M 74.772313,22.98876 c -1.150588,-0.342169 0.23339,0.745124 0,0 z m 2.616315,-2.119547 c -1.576038,-0.491593 0.113758,1.009048 0.05805,0.05805 z m 0.94613,-2.058855 c -1.49581,-0.977655 0.226675,1.257056 0.09018,0.108654 z m 2.32356,-1.739999 c -0.905337,-1.094713 -0.07394,1.265402 0.02082,0.05426 z m 1.399936,-0.0014 c -0.284358,-0.538472 -0.309831,0.513991 0,0 z m -0.496769,-0.22181 c -1.074308,-1.01911 -0.845531,0.389944 0,0 z m 1.241922,-0.647536 c 0.910445,-0.08293 0.810106,-1.358762 -0.150193,-0.313314 -0.710199,0.525829 0.05214,0.897612 0.150193,0.313314 z m -1.73869,-0.248384 c -0.58855,-1.209802 -0.771573,1.150266 0,0 z m 4.13974,-0.910743 c -0.334197,-0.439109 -0.217217,1.023592 0.165588,0.16559 l -0.120003,-0.120005 z m -0.413975,-0.206987 c -0.284361,-0.538469 -0.309828,0.513992 0,0 z m -0.65533,-0.496768 c 0.102754,-1.729368 -0.901514,1.520149 0,0 z M 69.390651,27.371425 c 0.693376,-2.370425 2.094017,-4.502692 3.457327,-6.565826 0.598938,-0.920493 1.013837,-0.987191 1.466347,-1.946811 0.637361,-0.724053 1.245617,-1.485052 2.053066,-1.970067 1.16173,-1.270588 2.375927,-2.761881 4.083113,-3.211627 1.799497,-0.525291 0.637559,0.44055 -0.23633,1.001743 -2.2367,1.524182 -4.0889,3.518166 -5.792371,5.601429 -1.369772,1.676436 -2.429951,3.538706 -3.287628,5.522528 -0.36094,0.73439 -0.878779,2.431721 -1.743524,1.652762 z m 4.388124,-7.114898 c -1.150589,-0.342167 0.233395,0.745123 0,0 z m 3.311792,-3.435984 c -0.28436,-0.538469 -0.309831,0.51399 0,0 z M 80.071179,14.3367 c 0.772406,-1.626293 -1.464806,1.379224 0,0 z m 37.934041,8.764679 c -1.33062,-2.061818 -3.27363,-3.635316 -5.05898,-5.27839 -1.94016,-1.293846 -3.85688,-2.63164 -6.08599,-3.383798 -0.81217,0.02997 -1.4185,-2.112651 -0.33614,-1.71699 1.23056,0.257354 0.28128,-1.736582 -0.72929,-1.142522 -1.40882,-0.593419 0.66852,1.258906 -1.07641,0.709278 -0.51165,0.318881 -0.1006,1.779131 -1.59299,0.935195 -1.31682,0.12498 1.53354,-1.104163 -0.54171,-0.791283 -0.19771,0.379739 1.74486,-1.668358 -0.0429,-0.924747 -0.9219,-0.55259 1.40868,-2.1313204 0.60073,-0.772995 0.65339,-0.196331 1.07291,-0.9945953 1.32159,0.410469 0.14725,1.273562 1.28583,-0.502192 2.06091,-0.159657 2.49238,1.135941 5.07074,2.115486 7.26466,3.794369 0.94696,0.533276 0.8307,1.384984 2.04372,1.519791 1.88143,2.035299 4.07391,3.822024 5.40838,6.294446 0.38909,0.716598 1.81336,2.045018 0.0878,1.82792 -0.8667,-0.103727 -2.16462,0.757671 -2.60002,-0.31133 -0.24108,-0.33656 -0.48265,-0.673307 -0.72343,-1.009756 z m 2.05584,-0.07123 c -0.28437,-0.53846 -0.30981,0.513997 0,0 z m -6.20961,-7.203146 c -0.28436,-0.538468 -0.30982,0.513989 0,0 z m -0.24838,-0.869342 c -0.94953,-1.019824 -1.3154,0.946257 0,0.07867 z m -4.96769,-1.862883 c -0.28436,-0.538468 -0.30982,0.513989 0,0 z m -4.47092,-0.372577 c -0.58855,-1.209804 -0.77157,1.150274 0,0 z m -0.24838,-0.606302 c -0.84364,-1.168652 -0.48773,0.353176 0,0 z m 0.24838,-1.25658 c -0.28435,-0.538471 -0.30982,0.513989 0,0 z m 17.98958,12.108737 c -1.71037,-3.132304 -4.47315,-5.544722 -6.9467,-8.010395 -2.55948,-1.357336 -4.87805,-3.272024 -7.71118,-4.095489 -1.15362,0.07558 -1.08102,-1.3379989 -2.0831,-1.1205831 -0.16024,-1.1246172 1.50933,0.2224273 2.20446,0.18859 1.55275,-0.3324814 0.92767,2.0125151 1.88226,0.8513711 0.783,-0.09349 1.67259,1.057737 1.87063,1.069629 0.87426,-0.165312 1.75341,0.945561 2.62963,1.289691 1.77599,1.229673 3.45398,2.657182 5.02615,4.133993 1.84944,1.944703 3.27224,4.213062 4.75154,6.43856 -0.55875,1.179684 -1.33989,-0.06979 -1.62369,-0.745367 z m -1.59621,-3.415285 c -0.28436,-0.538468 -0.30982,0.513991 0,0 z M 86.777557,14.585084 c 0.28436,-0.538469 0.30983,0.51399 0,0 z m 0.745153,-0.993537 c 0.284358,-0.538472 0.309831,0.513991 0,0 z M 81.600196,13.14142 c -0.719009,-0.600712 1.545239,-1.430296 1.203211,-0.188313 -0.409269,0.0802 -0.955884,0.878353 -1.203211,0.188313 z m 0.706442,-0.295027 c -0.284361,-0.538469 -0.309828,0.513992 0,0 z m 22.602982,0.124193 c 0.58854,-1.20981 0.77156,1.150274 0,0 z m -4.28463,-0.186105 c -0.59254,-0.938658 -0.78323,0.229574 -1.735236,-0.500413 1.246366,-0.928603 0.570441,-0.849598 0.681238,-1.83421 0.497338,-1.1482401 1.819418,-0.400651 1.756328,0.508635 0.0467,1.899833 -1.25912,-0.710185 -1.13412,0.347075 0.19996,0.525746 2.04857,1.68722 0.53526,1.502459 l -0.10367,-0.02354 z m -1.01424,-0.724638 c -0.334196,-0.439108 -0.217217,1.023591 0.165588,0.16559 l -0.120003,-0.120005 z m 1.07633,-1.448909 c -0.28436,-0.538468 -0.30982,0.513989 0,0 z m 1.49031,2.235459 c 0.28436,-0.538468 0.30982,0.513991 0,0 z m -7.114441,-0.496768 c 0.842042,-0.34566 1.607501,-0.843757 2.24102,-1.039389 0.978038,0.59365 -1.221069,-1.9427269 0.256807,-0.807684 0.410072,0.672464 1.686876,1.66334 0.687199,2.274265 -0.514081,-0.831655 -1.291196,-0.845982 -2.156005,-0.487247 -0.141133,0.505454 -2.06249,0.726981 -1.029021,0.06006 z m 1.236008,0.206987 c 1.15059,-0.342155 -0.233383,0.745112 0,0 z m 5.381663,-0.331179 c 0.43703,-0.949474 0.52824,0.653641 0,0.07867 z M 83.109374,11.928494 c 0.239594,-0.660158 2.13339,-0.857138 2.153801,-0.32972 -0.461545,0.373097 -2.224313,1.126816 -2.153801,0.32972 z m 9.7536,0.04855 c 0.935086,-0.966567 -0.31741,0.961351 0,0 z m 1.254803,0.02084 c -0.388418,-1.025637 0.814597,-1.958065 1.699897,-1.304689 0.217059,0.552711 -0.873894,1.605609 -1.559269,1.532229 l -0.08922,-0.144365 z m 0.60808,-0.393421 c -0.284388,-0.538446 -0.309803,0.514007 0,0 z M 91.993629,11.48028 c 0.437038,-0.949474 0.528238,0.653636 0,0.07867 z m 9.686991,0.124192 c 0.28436,-0.538468 0.30982,0.513989 0,0 z M 90.254938,11.356087 c 0.284361,-0.538469 0.309828,0.513992 0,0 z m 0.547357,-0.383872 c -0.664806,-1.6645365 1.291069,1.205015 0.0335,0.05363 z m 2.184871,0.25968 c 0.588551,-1.209804 0.77157,1.150271 0,0 z m 5.578434,-0.01652 c -0.396487,-1.4851076 0.945251,1.071355 0,0 z m 6.84078,-0.356051 c 0.28437,-0.538476 0.30984,0.513994 0,0 z m -3.97415,-0.620961 c 1.1029,-1.2902769 0.65158,1.103551 0,0 z m -3.228993,-0.124197 c 0.28436,-0.5384718 0.309832,0.513991 0,0 z m 5.847783,-0.3551862 c 0.0258,-0.8315429 1.74805,-0.1392155 0.17708,0.1909822 -0.10879,0.083811 -0.11344,-0.1409914 -0.17708,-0.1909822 z m -2.18658,-0.790862 c -0.1058,-1.2803609 1.21457,1.3979982 1.30649,-0.141393 1.10983,-0.1512677 -0.29824,1.2041952 -1.13342,0.6664797 -0.58056,0.1150343 -0.16674,-0.2259284 -0.17307,-0.5250867 z M 96.381753,8.8308462 c -0.8147,-1.0705168 1.702763,-0.5230301 0.658236,0.1655896 -0.237851,-0.035005 -0.519318,0.1110612 -0.658236,-0.1655896 z m 1.821484,-0.2147825 c 0.03039,-0.6292262 2.015463,-0.6053894 2.243563,0.097662 -1.00159,0.779864 0.28058,-0.7637572 -1.250223,-0.00613 -0.349428,-0.067194 -1.205164,0.6577826 -0.99334,-0.091534 z M 95.553803,8.3340775 c 1.150588,-0.3421624 -0.23338,0.7451176 0,0 z" />
    <text
       xml:space="preserve"
       style="font-style:normal;font-variant:normal;font-weight:normal;font-stretch:normal;font-size:15.1719px;line-height:1.25;font-family:'Franklin Gothic Demi';-inkscape-font-specification:'Franklin Gothic Demi';fill:#b92525;fill-opacity:1;stroke:none;stroke-width:0.379299;"
       x="47.345406"
       y="69.028641"
       id="text986"
       transform="rotate(-15.747849)"><tspan
         sodipodi:role="line"
         id="tspan984"
         x="47.345406"
         y="69.028641"
         style="font-style:normal;font-variant:normal;font-weight:normal;font-stretch:normal;font-family:'Franklin Gothic Demi';-inkscape-font-specification:'Franklin Gothic Demi';stroke-width:0.379299;fill:#b92525;fill-opacity:1;">BLOOPERS</tspan></text>
  </g>
</svg>
